<svg version="1.1" xmlns="http://www.w3.org/2000/svg" viewBox="0 0 1405.432876586914 884.556640625" width="2810.865753173828" height="1769.11328125" filter="invert(93%) hue-rotate(180deg)">
  <!-- svg-source:excalidraw -->
  
  <defs>
    <style class="style-fonts">
      @font-face {
        font-family: "Virgil";
        src: url("https://excalidraw.com/Virgil.woff2");
      }
      @font-face {
        font-family: "Cascadia";
        src: url("https://excalidraw.com/Cascadia.woff2");
      }
      @font-face {
        font-family: "Assistant";
        src: url("https://excalidraw.com/Assistant-Regular.woff2");
      }
    </style>
    
  </defs>
  <rect x="0" y="0" width="1405.432876586914" height="884.556640625" fill="#ffffff"></rect><g stroke-linecap="round" transform="translate(166.18359375 117.69921875) rotate(0 251.357421875 266.1328125)"><path d="M32 0 C189.29 -0.67, 348.13 0.62, 470.71 0 M32 0 C130.38 1.04, 228.08 1.5, 470.71 0 M470.71 0 C491.64 -0.95, 503.37 11.85, 502.71 32 M470.71 0 C491.4 0.2, 500.91 9.74, 502.71 32 M502.71 32 C501.83 149.9, 502.17 268.4, 502.71 500.27 M502.71 32 C504.4 192.95, 504.67 354.51, 502.71 500.27 M502.71 500.27 C504.44 520.19, 491.07 533.15, 470.71 532.27 M502.71 500.27 C501.3 520.32, 492.49 534.5, 470.71 532.27 M470.71 532.27 C306.56 535.16, 142.46 534.65, 32 532.27 M470.71 532.27 C356.17 530.15, 242.68 530.34, 32 532.27 M32 532.27 C11.27 531.9, -1.77 522.24, 0 500.27 M32 532.27 C11.96 531.32, 0 520.85, 0 500.27 M0 500.27 C-0.73 332.53, -1.51 166.39, 0 32 M0 500.27 C0.33 332.46, 0.89 164.99, 0 32 M0 32 C0.32 9.69, 11.66 -0.98, 32 0 M0 32 C0.68 12.44, 12.52 0.02, 32 0" stroke="#1e1e1e" stroke-width="2" fill="none"></path></g><g stroke-linecap="round"><g transform="translate(139.17578125 222.69140625) rotate(0 339.25 -0.109375)"><path d="M0.54 -0.99 C113.38 -1.03, 565.05 -0.39, 677.9 -0.32 M-0.64 1.1 C112.52 1.27, 566.84 1.25, 680.3 1.16" stroke="#1e1e1e" stroke-width="2" fill="none"></path></g></g><mask></mask><g stroke-linecap="round"><g transform="translate(136.48046875 366.52734375) rotate(0 298.01171875 -3.609375)"><path d="M0.01 -0.78 C99.57 -1.98, 497.05 -5.25, 596.34 -6.29 M-1.45 1.42 C98.08 -0.17, 496.17 -6.76, 595.56 -7.93" stroke="#1e1e1e" stroke-width="2" fill="none"></path></g></g><mask></mask><g stroke-linecap="round"><g transform="translate(124.73046875 521.90234375) rotate(0 324.57421875 -3.212890625)"><path d="M0.27 0.56 C108.49 -0.78, 540.59 -6.21, 648.83 -7.31 M-1.04 -0.19 C107.03 -1.47, 539.33 -4.9, 647.72 -6.24" stroke="#1e1e1e" stroke-width="2" fill="none"></path></g></g><mask></mask><g stroke-linecap="round"><g transform="translate(248.4921875 87.05078125) rotate(0 -1.62890625 321.203125)"><path d="M0.1 1.04 C-0.37 108.32, -3.35 535.71, -3.95 642.59 M-1.31 0.53 C-1.29 108.14, -1.09 537.05, -1.61 644.22" stroke="#1e1e1e" stroke-width="2" fill="none"></path></g></g><mask></mask><g stroke-linecap="round"><g transform="translate(372.671875 61.01953125) rotate(0 -3.01953125 344.919921875)"><path d="M1.17 0.62 C0.01 115.49, -5.19 573.63, -6.27 688.69 M0.32 -0.1 C-1.08 114.92, -6.33 574.73, -7.33 689.62" stroke="#1e1e1e" stroke-width="2" fill="none"></path></g></g><mask></mask><g stroke-linecap="round"><g transform="translate(498.45703125 75.14453125) rotate(0 -4.375 320.23828125)"><path d="M-1.03 -0.15 C-2.59 106.69, -7.69 533.13, -9.11 639.9 M0.63 -1.28 C-1.14 105.82, -8.96 533.95, -10.25 641.14" stroke="#1e1e1e" stroke-width="2" fill="none"></path></g></g><mask></mask><g stroke-linecap="round" transform="translate(484.84375 207.00390625) rotate(0 12.998046875 14.775390625)"><path d="M10.95 -0.29 C13.57 -0.86, 17.34 0.71, 19.82 2.42 C22.29 4.14, 24.95 7.14, 25.77 10.02 C26.6 12.9, 25.88 16.78, 24.76 19.71 C23.64 22.63, 21.51 25.98, 19.04 27.58 C16.58 29.18, 12.65 29.94, 9.95 29.31 C7.25 28.68, 4.5 26.36, 2.83 23.81 C1.15 21.27, -0.12 17.21, -0.12 14.05 C-0.13 10.89, 0.85 7.15, 2.79 4.85 C4.73 2.55, 9.89 1.05, 11.53 0.23 C13.17 -0.6, 12.6 -0.32, 12.61 -0.11 M15.8 0.71 C18.36 0.87, 20.78 2.11, 22.36 4.51 C23.93 6.91, 25.23 11.91, 25.26 15.09 C25.29 18.28, 24.18 21.14, 22.54 23.62 C20.89 26.11, 18.14 29.26, 15.4 30.01 C12.66 30.76, 8.41 29.91, 6.07 28.14 C3.72 26.36, 2.32 22.33, 1.31 19.38 C0.31 16.43, -0.78 13.41, 0.03 10.42 C0.85 7.44, 3.65 3.17, 6.19 1.45 C8.73 -0.27, 13.89 0.26, 15.27 0.11 C16.65 -0.05, 14.44 0.22, 14.46 0.5" stroke="none" stroke-width="0" fill="#1e1e1e"></path><path d="M14.82 0.47 C17.43 0.71, 20.37 2.46, 22.28 4.7 C24.2 6.95, 26.03 10.8, 26.31 13.95 C26.58 17.09, 25.6 21.05, 23.92 23.58 C22.23 26.12, 18.93 28.43, 16.18 29.18 C13.42 29.92, 9.96 29.49, 7.39 28.05 C4.82 26.61, 1.96 23.51, 0.75 20.52 C-0.45 17.52, -0.74 13.03, 0.17 10.08 C1.07 7.14, 3.67 4.55, 6.18 2.85 C8.7 1.14, 13.73 0.19, 15.25 -0.16 C16.78 -0.5, 15.46 0.46, 15.33 0.79 M12.51 0.68 C15.27 0.39, 19.69 0.76, 21.88 2.66 C24.07 4.56, 25.15 8.86, 25.67 12.08 C26.19 15.3, 26.39 19.26, 25 21.99 C23.61 24.72, 19.9 27.22, 17.3 28.45 C14.71 29.68, 11.99 30.47, 9.44 29.36 C6.88 28.26, 3.43 24.67, 1.98 21.82 C0.53 18.97, 0.41 15.31, 0.74 12.27 C1.08 9.23, 2.03 5.62, 4 3.56 C5.97 1.5, 11.14 0.35, 12.58 -0.11 C14.01 -0.57, 12.64 0.53, 12.62 0.8" stroke="#1e1e1e" stroke-width="2" fill="none"></path></g><g transform="translate(215.5390625 15.20703125) rotate(0 219.07980346679688 12.5)"><text x="0" y="0" font-family="Virgil, Segoe UI Emoji" font-size="20px" fill="#1e1e1e" text-anchor="start" style="white-space: pre;" direction="ltr" dominant-baseline="text-before-edge">Iterate through terrain chunk mesh vertices</text></g><g transform="translate(710.25 10) rotate(0 252.42977905273438 100)"><text x="0" y="0" font-family="Virgil, Segoe UI Emoji" font-size="20px" fill="#1e1e1e" text-anchor="start" style="white-space: pre;" direction="ltr" dominant-baseline="text-before-edge">Calculate the distance between each point, </text><text x="0" y="25" font-family="Virgil, Segoe UI Emoji" font-size="20px" fill="#1e1e1e" text-anchor="start" style="white-space: pre;" direction="ltr" dominant-baseline="text-before-edge">and the terrain features we care about.</text><text x="0" y="50" font-family="Virgil, Segoe UI Emoji" font-size="20px" fill="#1e1e1e" text-anchor="start" style="white-space: pre;" direction="ltr" dominant-baseline="text-before-edge"></text><text x="0" y="75" font-family="Virgil, Segoe UI Emoji" font-size="20px" fill="#1e1e1e" text-anchor="start" style="white-space: pre;" direction="ltr" dominant-baseline="text-before-edge">Then where distance = x, apply a function f</text><text x="0" y="100" font-family="Virgil, Segoe UI Emoji" font-size="20px" fill="#1e1e1e" text-anchor="start" style="white-space: pre;" direction="ltr" dominant-baseline="text-before-edge">for each feature type, where f(x) is the elevation.</text><text x="0" y="125" font-family="Virgil, Segoe UI Emoji" font-size="20px" fill="#1e1e1e" text-anchor="start" style="white-space: pre;" direction="ltr" dominant-baseline="text-before-edge"></text><text x="0" y="150" font-family="Virgil, Segoe UI Emoji" font-size="20px" fill="#1e1e1e" text-anchor="start" style="white-space: pre;" direction="ltr" dominant-baseline="text-before-edge">get the max elevation, and adjust the vertex!</text><text x="0" y="175" font-family="Virgil, Segoe UI Emoji" font-size="20px" fill="#1e1e1e" text-anchor="start" style="white-space: pre;" direction="ltr" dominant-baseline="text-before-edge"></text></g><g stroke-linecap="round"><g transform="translate(690.46484375 79.08138593244601) rotate(0 -88.53107808091215 62.54337157531232)"><path d="M-0.43 -0.22 C-29.66 20.66, -146.98 104.01, -176.27 124.76 M1.54 -1.39 C-27.7 19.71, -147.13 105.03, -176.81 126.13" stroke="#1e1e1e" stroke-width="2" fill="none"></path></g><g transform="translate(690.46484375 79.08138593244601) rotate(0 -88.53107808091215 62.54337157531232)"><path d="M-162.65 105.53 C-166.31 111.45, -169.67 116.19, -176.81 126.13 M-162.65 105.53 C-165.49 111.3, -169.31 114.77, -176.81 126.13" stroke="#1e1e1e" stroke-width="2" fill="none"></path></g><g transform="translate(690.46484375 79.08138593244601) rotate(0 -88.53107808091215 62.54337157531232)"><path d="M-152.72 119.46 C-158.57 122.19, -164.17 123.78, -176.81 126.13 M-152.72 119.46 C-157.81 122, -163.99 122.17, -176.81 126.13" stroke="#1e1e1e" stroke-width="2" fill="none"></path></g></g><mask></mask><g transform="translate(935.79296875 278.78125) rotate(0 -376.642578125 179.349609375)" stroke="none"><path fill="#1971c2" d="M 1.60,4.89 Q 1.60,4.89 -0.77,5.70 -3.15,6.50 -5.81,7.28 -8.48,8.05 -12.28,9.18 -16.07,10.32 -18.37,10.94 -20.68,11.57 -23.11,12.24 -25.54,12.91 -29.20,14.23 -32.85,15.54 -36.03,17.08 -39.21,18.61 -42.15,20.34 -45.08,22.07 -47.38,23.69 -49.68,25.31 -51.81,27.01 -53.95,28.71 -56.46,30.69 -58.97,32.66 -61.82,34.85 -64.66,37.04 -67.45,39.25 -70.23,41.46 -72.68,43.74 -75.13,46.02 -77.11,48.24 -79.10,50.45 -81.13,53.07 -83.16,55.70 -84.86,58.55 -86.57,61.40 -87.69,63.98 -88.82,66.55 -89.76,69.31 -90.70,72.08 -91.29,75.02 -91.89,77.96 -92.38,80.90 -92.88,83.84 -93.22,86.83 -93.55,89.82 -94.06,93.48 -94.58,97.14 -95.14,100.82 -95.70,104.49 -96.07,107.90 -96.44,111.30 -96.93,114.51 -97.43,117.71 -98.08,120.85 -98.72,123.99 -99.88,127.86 -101.03,131.72 -101.84,134.12 -102.65,136.51 -103.73,139.24 -104.82,141.97 -105.83,144.49 -106.85,147.02 -108.22,150.03 -109.58,153.04 -110.86,155.78 -112.14,158.52 -113.50,161.24 -114.87,163.95 -117.35,168.49 -119.82,173.03 -122.28,177.21 -124.75,181.39 -127.83,185.78 -130.92,190.17 -133.19,192.94 -135.46,195.71 -137.21,197.88 -138.96,200.04 -141.98,203.87 -145.00,207.70 -148.11,211.08 -151.21,214.47 -154.88,217.66 -158.55,220.85 -160.56,222.28 -162.57,223.71 -164.34,224.94 -166.11,226.16 -169.63,228.09 -173.15,230.03 -175.26,230.90 -177.38,231.77 -179.52,232.41 -181.66,233.04 -183.80,233.52 -185.94,234.00 -188.35,234.24 -190.77,234.49 -193.71,234.60 -196.65,234.71 -199.89,234.68 -203.14,234.66 -206.88,234.24 -210.62,233.82 -213.83,233.45 -217.04,233.09 -220.23,232.55 -223.42,232.02 -226.80,231.28 -230.18,230.55 -233.99,229.65 -237.80,228.76 -241.65,227.64 -245.50,226.52 -249.58,224.93 -253.65,223.35 -257.94,221.39 -262.23,219.44 -264.94,218.40 -267.65,217.36 -272.55,214.87 -277.45,212.37 -281.06,210.55 -284.67,208.73 -291.23,205.82 -297.80,202.90 -305.29,200.16 -312.79,197.42 -319.03,195.44 -325.26,193.45 -333.21,191.25 -341.16,189.05 -348.90,187.15 -356.63,185.26 -361.54,184.21 -366.45,183.17 -375.66,181.38 -384.87,179.59 -393.50,178.01 -402.14,176.43 -409.36,175.39 -416.59,174.36 -421.51,173.83 -426.43,173.31 -431.91,172.97 -437.39,172.63 -440.83,172.64 -444.27,172.65 -448.69,172.71 -453.11,172.77 -455.72,173.16 -458.33,173.55 -461.78,174.09 -465.23,174.63 -470.30,176.06 -475.37,177.50 -481.09,179.25 -486.81,181.00 -490.88,182.15 -494.96,183.30 -498.95,184.41 -502.94,185.53 -505.21,186.49 -507.47,187.44 -512.13,188.82 -516.80,190.21 -521.65,191.70 -526.50,193.19 -530.09,194.50 -533.68,195.81 -537.72,197.19 -541.76,198.57 -545.47,199.98 -549.17,201.39 -551.80,202.58 -554.43,203.76 -558.28,205.35 -562.13,206.94 -565.54,208.60 -568.94,210.26 -572.18,212.01 -575.42,213.76 -579.18,216.06 -582.94,218.37 -586.67,220.81 -590.41,223.24 -592.48,225.00 -594.55,226.76 -598.90,230.31 -603.25,233.85 -606.84,236.81 -610.42,239.77 -613.79,242.69 -617.15,245.62 -620.49,248.51 -623.83,251.41 -626.73,254.00 -629.64,256.59 -631.33,258.34 -633.01,260.09 -635.92,262.99 -638.82,265.90 -641.27,268.81 -643.72,271.73 -645.92,274.67 -648.13,277.60 -649.87,280.21 -651.61,282.82 -653.47,285.54 -655.34,288.27 -656.41,290.14 -657.49,292.00 -659.53,294.57 -661.58,297.14 -664.74,300.92 -667.90,304.69 -671.32,308.15 -674.73,311.60 -677.69,314.57 -680.64,317.54 -682.33,319.05 -684.02,320.57 -687.01,323.26 -690.00,325.95 -692.68,328.27 -695.36,330.59 -697.79,332.57 -700.22,334.56 -703.57,336.82 -706.92,339.08 -709.95,340.93 -712.99,342.78 -715.06,343.91 -717.13,345.03 -719.63,346.38 -722.14,347.72 -724.33,349.03 -726.51,350.35 -728.89,351.91 -731.26,353.48 -733.90,355.20 -736.53,356.93 -738.62,358.33 -740.71,359.73 -742.76,361.08 -744.82,362.42 -747.99,363.81 -751.15,365.19 -752.25,365.36 -753.34,365.53 -754.43,365.34 -755.52,365.15 -756.49,364.62 -757.46,364.10 -758.22,363.29 -758.97,362.48 -759.42,361.47 -759.88,360.47 -759.99,359.37 -760.10,358.27 -759.85,357.19 -759.61,356.11 -759.03,355.17 -758.45,354.23 -757.60,353.52 -756.75,352.81 -755.72,352.41 -754.69,352.01 -753.59,351.96 -752.48,351.91 -751.42,352.21 -750.36,352.52 -749.45,353.15 -748.54,353.77 -747.88,354.66 -747.22,355.55 -746.87,356.60 -746.53,357.65 -746.54,358.75 -746.55,359.86 -746.91,360.90 -747.27,361.95 -747.95,362.82 -748.62,363.70 -749.54,364.31 -750.47,364.92 -751.53,365.21 -752.60,365.49 -753.70,365.42 -754.81,365.35 -755.83,364.94 -756.85,364.52 -757.69,363.80 -758.53,363.07 -759.09,362.12 -759.65,361.17 -759.88,360.09 -760.11,359.00 -759.98,357.91 -759.85,356.81 -759.38,355.81 -758.90,354.81 -758.13,354.01 -757.37,353.22 -756.39,352.71 -755.40,352.20 -755.41,352.20 -755.41,352.20 -752.86,351.11 -750.31,350.02 -748.19,348.75 -746.06,347.48 -743.83,346.09 -741.60,344.71 -739.04,343.04 -736.49,341.38 -733.79,339.71 -731.09,338.05 -728.28,336.61 -725.47,335.16 -722.22,333.64 -718.97,332.12 -716.21,330.58 -713.44,329.04 -710.28,327.00 -707.11,324.96 -704.95,323.45 -702.78,321.93 -699.84,319.68 -696.90,317.43 -693.86,315.02 -690.82,312.61 -689.13,311.24 -687.43,309.87 -684.38,307.22 -681.33,304.58 -677.88,301.51 -674.43,298.44 -671.19,295.16 -667.96,291.87 -666.04,289.64 -664.12,287.41 -662.72,285.69 -661.32,283.98 -659.32,281.32 -657.32,278.66 -655.32,276.14 -653.33,273.61 -650.97,270.60 -648.61,267.60 -646.03,264.54 -643.44,261.49 -640.45,258.21 -637.45,254.93 -635.48,253.53 -633.51,252.13 -630.55,249.64 -627.59,247.15 -624.31,244.20 -621.04,241.26 -617.70,238.21 -614.36,235.16 -610.86,232.07 -607.36,228.98 -602.96,225.13 -598.55,221.28 -596.15,219.78 -593.75,218.28 -590.03,215.69 -586.31,213.10 -582.42,210.50 -578.53,207.90 -575.15,206.14 -571.77,204.39 -568.25,202.72 -564.74,201.05 -560.80,199.18 -556.86,197.32 -554.11,196.47 -551.36,195.62 -547.61,194.20 -543.87,192.78 -539.88,191.24 -535.89,189.70 -532.21,188.37 -528.54,187.05 -523.75,185.34 -518.97,183.64 -514.43,181.97 -509.88,180.31 -507.40,179.66 -504.92,179.01 -501.06,177.74 -497.19,176.47 -493.16,174.97 -489.14,173.47 -485.38,172.18 -481.62,170.89 -479.50,170.47 -477.39,170.04 -473.92,169.14 -470.44,168.24 -468.31,168.06 -466.17,167.89 -462.47,167.42 -458.76,166.96 -456.00,167.00 -453.24,167.04 -448.63,166.89 -444.02,166.74 -440.55,167.04 -437.07,167.34 -431.47,167.69 -425.87,168.03 -420.85,168.55 -415.84,169.08 -408.51,170.11 -401.18,171.15 -392.51,172.72 -383.85,174.28 -374.59,176.05 -365.34,177.82 -360.33,178.85 -355.32,179.87 -347.50,181.74 -339.68,183.60 -331.61,185.76 -323.54,187.92 -317.16,189.84 -310.78,191.77 -303.05,194.45 -295.32,197.13 -288.54,199.94 -281.76,202.74 -278.12,204.45 -274.49,206.16 -269.56,208.34 -264.64,210.52 -262.10,211.80 -259.57,213.07 -255.39,214.66 -251.22,216.25 -247.33,217.39 -243.44,218.53 -239.83,219.34 -236.22,220.14 -232.29,220.66 -228.37,221.19 -225.13,221.73 -221.89,222.28 -219.01,222.70 -216.13,223.12 -213.00,223.33 -209.88,223.55 -206.65,223.63 -203.42,223.72 -200.41,223.53 -197.40,223.34 -194.58,223.07 -191.76,222.80 -188.23,222.35 -184.70,221.89 -181.43,220.90 -178.17,219.92 -176.14,218.91 -174.12,217.91 -171.44,216.35 -168.75,214.80 -166.92,213.57 -165.09,212.34 -161.92,209.69 -158.74,207.05 -155.79,204.05 -152.85,201.06 -149.77,197.36 -146.69,193.66 -145.04,191.71 -143.40,189.76 -141.42,186.87 -139.44,183.98 -136.64,179.86 -133.84,175.74 -131.48,171.84 -129.13,167.94 -126.83,163.64 -124.53,159.35 -123.35,156.73 -122.17,154.11 -121.09,151.49 -120.01,148.86 -118.97,145.87 -117.93,142.89 -117.07,140.38 -116.21,137.88 -115.40,135.33 -114.59,132.79 -113.95,130.53 -113.30,128.27 -112.37,124.57 -111.44,120.86 -110.84,118.13 -110.24,115.39 -109.76,112.53 -109.29,109.67 -108.89,106.14 -108.50,102.61 -107.98,99.03 -107.46,95.45 -106.98,91.79 -106.50,88.13 -106.14,85.07 -105.77,82.02 -105.19,78.80 -104.61,75.57 -103.81,71.88 -103.00,68.18 -101.83,64.85 -100.66,61.53 -99.17,58.27 -97.68,55.02 -95.58,51.53 -93.47,48.04 -91.11,45.02 -88.76,42.00 -86.41,39.48 -84.05,36.97 -81.20,34.35 -78.35,31.72 -75.36,29.36 -72.37,26.99 -69.55,24.86 -66.73,22.73 -64.11,20.78 -61.49,18.84 -58.96,17.03 -56.43,15.23 -53.79,13.61 -51.15,11.98 -47.68,10.13 -44.21,8.28 -40.46,6.66 -36.71,5.04 -32.59,3.74 -28.47,2.43 -25.95,1.72 -23.42,1.01 -21.18,0.45 -18.95,-0.10 -15.15,-1.03 -11.36,-1.96 -8.87,-2.67 -6.39,-3.38 -3.99,-4.13 -1.60,-4.89 -0.99,-5.01 -0.38,-5.13 0.23,-5.10 0.85,-5.08 1.45,-4.90 2.04,-4.72 2.58,-4.41 3.11,-4.10 3.56,-3.66 4.00,-3.23 4.33,-2.70 4.66,-2.18 4.85,-1.59 5.05,-1.00 5.09,-0.38 5.14,0.23 5.04,0.84 4.93,1.46 4.69,2.03 4.44,2.60 4.07,3.09 3.69,3.58 3.21,3.97 2.72,4.36 2.16,4.63 1.60,4.89 1.60,4.89 L 1.60,4.89 Z"></path></g><g transform="translate(29.7421875 484.8359375) rotate(0 196.25 -53.9140625)" stroke="none"><path fill="#f08c00" d="M -2.44,-3.07 Q -2.44,-3.07 -1.04,-4.39 0.34,-5.71 2.38,-7.88 4.41,-10.05 5.89,-11.68 7.36,-13.30 9.23,-15.34 11.09,-17.38 14.17,-20.26 17.25,-23.13 21.22,-27.09 25.19,-31.06 29.59,-35.52 33.99,-39.99 38.35,-44.40 42.71,-48.80 45.97,-52.04 49.24,-55.27 53.40,-59.31 57.56,-63.35 59.97,-65.90 62.38,-68.45 66.34,-72.07 70.31,-75.69 72.92,-78.12 75.54,-80.55 79.33,-83.97 83.12,-87.39 85.21,-89.48 87.30,-91.57 89.50,-93.54 91.71,-95.52 93.46,-97.05 95.20,-98.59 97.54,-100.58 99.88,-102.58 102.69,-103.60 105.49,-104.62 107.96,-102.68 110.43,-100.75 111.39,-98.68 112.34,-96.61 114.03,-92.41 115.73,-88.21 116.74,-85.52 117.75,-82.84 118.64,-80.80 119.54,-78.76 121.03,-73.97 122.52,-69.19 123.70,-65.88 124.88,-62.58 126.48,-57.91 128.08,-53.24 129.48,-49.17 130.87,-45.11 132.15,-42.18 133.43,-39.25 134.52,-37.27 135.60,-35.29 137.40,-32.95 139.21,-30.60 141.12,-28.90 143.02,-27.19 144.87,-25.35 146.72,-23.52 147.27,-21.44 147.82,-19.35 147.10,-17.19 146.38,-15.03 145.60,-17.96 144.82,-20.90 144.88,-23.64 144.93,-26.39 148.35,-29.53 151.77,-32.66 153.74,-34.61 155.71,-36.55 160.16,-40.54 164.62,-44.54 167.52,-47.13 170.41,-49.72 174.32,-53.20 178.24,-56.67 181.68,-59.79 185.12,-62.90 188.36,-65.98 191.60,-69.07 194.26,-72.02 196.91,-74.98 198.94,-77.69 200.97,-80.41 202.47,-82.76 203.97,-85.12 205.53,-87.69 207.08,-90.25 208.45,-92.59 209.82,-94.93 211.27,-97.03 212.71,-99.13 215.30,-102.06 217.89,-104.99 220.07,-106.88 222.24,-108.78 224.30,-110.08 226.36,-111.39 228.86,-112.32 231.36,-113.24 233.49,-113.60 235.62,-113.95 238.02,-113.72 240.41,-113.48 243.30,-111.70 246.18,-109.93 248.61,-107.16 251.04,-104.39 253.18,-100.76 255.32,-97.13 257.47,-92.38 259.62,-87.62 260.77,-85.15 261.92,-82.68 263.42,-79.16 264.92,-75.65 266.33,-72.84 267.74,-70.04 269.14,-67.46 270.54,-64.89 271.82,-62.71 273.10,-60.52 274.27,-58.70 275.45,-56.87 277.59,-54.03 279.73,-51.19 281.41,-49.27 283.08,-47.36 284.87,-45.70 286.66,-44.04 286.72,-43.92 286.79,-43.80 287.18,-43.17 287.56,-42.54 287.78,-41.84 288.00,-41.14 288.05,-40.41 288.10,-39.68 287.97,-38.95 287.85,-38.23 287.55,-37.56 287.25,-36.89 286.80,-36.31 286.35,-35.73 285.78,-35.27 285.20,-34.81 284.53,-34.51 283.87,-34.20 283.15,-34.07 282.42,-33.93 281.69,-33.97 280.96,-34.01 280.25,-34.22 279.55,-34.44 278.92,-34.81 278.29,-35.19 277.77,-35.70 277.25,-36.22 277.77,-40.51 278.29,-44.80 279.97,-47.80 281.64,-50.80 282.92,-52.50 284.20,-54.20 286.44,-56.86 288.68,-59.52 290.47,-61.72 292.26,-63.91 295.18,-66.88 298.09,-69.85 300.65,-72.50 303.21,-75.15 305.15,-77.31 307.09,-79.47 308.88,-81.48 310.67,-83.48 312.26,-85.24 313.86,-87.00 315.44,-88.58 317.01,-90.16 319.74,-92.71 322.47,-95.25 324.31,-97.01 326.15,-98.78 327.83,-100.28 329.51,-101.79 331.81,-103.59 334.11,-105.40 335.96,-106.71 337.80,-108.02 340.03,-108.96 342.26,-109.89 344.53,-110.25 346.80,-110.60 349.34,-109.88 351.88,-109.16 354.05,-107.87 356.22,-106.59 358.30,-104.88 360.37,-103.17 361.98,-101.59 363.58,-100.02 365.21,-98.30 366.84,-96.59 368.37,-95.00 369.90,-93.41 371.69,-91.39 373.49,-89.37 375.26,-87.36 377.03,-85.35 378.67,-83.68 380.30,-82.02 381.96,-80.34 383.61,-78.66 386.39,-76.02 389.18,-73.38 391.31,-71.46 393.44,-69.53 394.86,-68.35 396.27,-67.17 396.98,-66.44 397.68,-65.71 398.11,-64.79 398.53,-63.87 398.65,-62.86 398.76,-61.85 398.55,-60.86 398.33,-59.86 397.81,-58.99 397.29,-58.12 396.52,-57.46 395.75,-56.80 394.81,-56.42 393.86,-56.04 392.85,-55.99 391.84,-55.93 390.86,-56.20 389.88,-56.46 389.04,-57.03 388.20,-57.60 387.58,-58.40 386.96,-59.21 386.63,-60.17 386.31,-61.13 386.30,-62.15 386.30,-63.16 386.62,-64.12 386.94,-65.09 387.55,-65.90 388.17,-66.71 389.00,-67.28 389.84,-67.85 390.82,-68.13 391.80,-68.40 392.81,-68.35 393.82,-68.30 394.77,-67.93 395.71,-67.55 396.49,-66.90 397.26,-66.24 397.79,-65.38 398.32,-64.51 398.54,-63.52 398.76,-62.53 398.65,-61.52 398.55,-60.51 398.12,-59.58 397.70,-58.66 397.00,-57.92 396.31,-57.18 395.41,-56.71 394.52,-56.23 393.52,-56.06 392.51,-55.89 391.51,-56.05 390.51,-56.22 389.61,-56.69 388.71,-57.16 388.71,-57.16 388.72,-57.16 386.76,-58.85 384.80,-60.53 382.72,-62.59 380.65,-64.64 377.87,-67.35 375.10,-70.06 373.42,-71.67 371.75,-73.28 369.88,-75.05 368.01,-76.81 366.12,-78.68 364.22,-80.56 362.43,-82.30 360.64,-84.05 357.47,-87.03 354.31,-90.02 351.38,-92.58 348.46,-95.15 346.20,-96.00 343.94,-96.84 341.98,-95.70 340.03,-94.56 337.84,-93.05 335.64,-91.53 333.82,-90.23 332.00,-88.92 329.51,-86.98 327.01,-85.04 324.04,-82.55 321.07,-80.05 319.45,-78.47 317.84,-76.90 316.01,-74.97 314.18,-73.04 312.25,-70.92 310.31,-68.81 308.07,-66.09 305.83,-63.36 303.53,-60.12 301.23,-56.88 299.65,-54.77 298.07,-52.67 296.17,-49.65 294.26,-46.64 292.20,-43.71 290.14,-40.79 288.26,-38.27 286.38,-35.75 286.59,-39.77 286.79,-43.80 287.17,-43.17 287.56,-42.54 287.78,-41.84 288.00,-41.14 288.05,-40.41 288.10,-39.68 287.97,-38.96 287.85,-38.23 287.55,-37.56 287.25,-36.89 286.80,-36.31 286.35,-35.73 285.78,-35.27 285.20,-34.81 284.54,-34.51 283.87,-34.20 283.15,-34.07 282.42,-33.93 281.69,-33.97 280.96,-34.01 280.26,-34.22 279.55,-34.44 278.92,-34.81 278.29,-35.19 277.77,-35.70 277.25,-36.22 277.44,-36.19 277.62,-36.16 275.97,-38.04 274.32,-39.92 272.60,-42.33 270.87,-44.74 268.69,-48.10 266.51,-51.45 265.36,-53.45 264.22,-55.45 262.96,-57.71 261.71,-59.97 260.21,-62.59 258.72,-65.21 257.13,-68.00 255.54,-70.79 253.49,-74.12 251.45,-77.46 250.16,-79.87 248.88,-82.28 246.40,-86.60 243.91,-90.92 242.30,-93.66 240.68,-96.41 239.75,-99.39 238.83,-102.38 235.95,-102.08 233.08,-101.78 230.77,-101.03 228.46,-100.29 226.36,-98.95 224.26,-97.61 221.97,-95.69 219.68,-93.77 218.23,-92.11 216.78,-90.44 215.21,-88.22 213.64,-86.00 211.85,-83.39 210.05,-80.78 208.21,-78.47 206.37,-76.15 204.11,-73.41 201.85,-70.68 199.15,-67.48 196.45,-64.29 193.37,-60.97 190.29,-57.65 187.11,-54.25 183.94,-50.86 180.40,-47.03 176.86,-43.20 174.29,-40.39 171.72,-37.57 167.86,-33.09 164.01,-28.60 162.06,-26.45 160.11,-24.30 157.84,-21.72 155.57,-19.13 152.84,-16.65 150.10,-14.17 148.02,-12.96 145.95,-11.74 142.77,-11.61 139.60,-11.48 138.48,-14.54 137.36,-17.60 135.96,-19.33 134.55,-21.05 133.08,-23.06 131.62,-25.07 129.84,-28.45 128.07,-31.82 127.20,-34.08 126.33,-36.33 125.17,-39.37 124.00,-42.40 122.26,-46.30 120.51,-50.20 118.42,-54.72 116.32,-59.25 114.97,-62.47 113.61,-65.69 111.51,-70.07 109.40,-74.44 108.50,-76.62 107.60,-78.79 106.49,-81.43 105.38,-84.06 104.46,-86.36 103.53,-88.67 102.74,-90.80 101.95,-92.93 101.33,-95.20 100.72,-97.48 102.78,-96.13 104.85,-94.78 102.48,-93.45 100.11,-92.12 98.25,-90.93 96.39,-89.73 94.12,-88.08 91.85,-86.43 89.58,-84.66 87.31,-82.89 83.57,-79.29 79.82,-75.68 77.15,-73.46 74.48,-71.24 70.69,-67.58 66.90,-63.92 64.34,-61.51 61.78,-59.11 57.75,-55.02 53.73,-50.92 50.62,-47.58 47.51,-44.24 43.36,-39.68 39.20,-35.13 35.07,-30.44 30.94,-25.75 27.28,-21.45 23.62,-17.14 20.98,-13.93 18.34,-10.72 16.36,-8.57 14.37,-6.42 12.62,-4.75 10.87,-3.08 8.26,-1.07 5.64,0.94 4.04,2.00 2.44,3.07 2.04,3.32 1.64,3.56 1.18,3.71 0.73,3.85 0.26,3.89 -0.20,3.92 -0.67,3.84 -1.13,3.75 -1.57,3.56 -2.00,3.37 -2.38,3.08 -2.75,2.79 -3.05,2.42 -3.34,2.05 -3.54,1.62 -3.74,1.19 -3.83,0.73 -3.91,0.26 -3.89,-0.20 -3.86,-0.67 -3.73,-1.13 -3.59,-1.58 -3.35,-1.99 -3.11,-2.39 -2.77,-2.73 -2.44,-3.07 -2.44,-3.07 L -2.44,-3.07 Z"></path></g><g stroke-linecap="round"><g transform="translate(522.00390625 253.5234375) rotate(0 38.53515625 96.974609375)"><path d="M0.35 0.22 C13.5 32.48, 65.55 162.43, 78.19 194.71 M-0.92 -0.71 C12.22 31.72, 64.57 160.33, 77.83 192.98" stroke="#1971c2" stroke-width="2" fill="none"></path></g><g transform="translate(522.00390625 253.5234375) rotate(0 38.53515625 96.974609375)"><path d="M61.06 174.44 C65.71 180.79, 70.7 181.98, 77.83 192.98 M61.06 174.44 C66.64 179.99, 71.99 185.53, 77.83 192.98" stroke="#1971c2" stroke-width="2" fill="none"></path></g><g transform="translate(522.00390625 253.5234375) rotate(0 38.53515625 96.974609375)"><path d="M76.9 168 C77.75 175.97, 78.87 178.74, 77.83 192.98 M76.9 168 C77.78 175.48, 78.41 182.94, 77.83 192.98" stroke="#1971c2" stroke-width="2" fill="none"></path></g></g><mask></mask><g stroke-linecap="round"><g transform="translate(485.40625 252.51953125) rotate(0 -60.951171875 53.48828125)"><path d="M-0.07 -0.41 C-20.3 17.47, -101.45 90.22, -121.86 108.17 M-1.56 -1.68 C-21.9 15.84, -102.44 88.87, -122.79 106.68" stroke="#f08c00" stroke-width="2" fill="none"></path></g><g transform="translate(485.40625 252.51953125) rotate(0 -60.951171875 53.48828125)"><path d="M-110.96 84.66 C-114.56 90.43, -114.94 94.97, -122.79 106.68 M-110.96 84.66 C-114.65 90.99, -118.15 99.78, -122.79 106.68" stroke="#f08c00" stroke-width="2" fill="none"></path></g><g transform="translate(485.40625 252.51953125) rotate(0 -60.951171875 53.48828125)"><path d="M-99.57 97.42 C-106.22 99.87, -109.55 101.1, -122.79 106.68 M-99.57 97.42 C-107.1 99.64, -114.35 104.23, -122.79 106.68" stroke="#f08c00" stroke-width="2" fill="none"></path></g></g><mask></mask><g transform="translate(10 301.0078125) rotate(0 171.7298583984375 12.5)"><text x="0" y="0" font-family="Virgil, Segoe UI Emoji" font-size="20px" fill="#f08c00" text-anchor="start" style="white-space: pre;" direction="ltr" dominant-baseline="text-before-edge">Distance to mountain chain polyline</text></g><g transform="translate(587.01171875 313.12109375) rotate(0 90.28992462158203 12.5)"><text x="0" y="0" font-family="Virgil, Segoe UI Emoji" font-size="20px" fill="#1971c2" text-anchor="start" style="white-space: pre;" direction="ltr" dominant-baseline="text-before-edge">distance to coast</text></g><g stroke-linecap="round"><g transform="translate(953.734375 348.66796875) rotate(0 -0.546875 118.705078125)"><path d="M-1.12 -0.61 C-1.33 38.97, -1.96 198.66, -2.06 238.37 M0.49 1.68 C0.73 40.87, 0.69 197.19, 0.14 236.75" stroke="#1971c2" stroke-width="2" fill="none"></path></g></g><mask></mask><g stroke-linecap="round"><g transform="translate(901.109375 558.19921875) rotate(0 193.990234375 2.78125)"><path d="M-0.19 0.04 C64.52 1.08, 324.32 4.59, 388.94 5.69 M-1.74 -0.98 C62.83 0.31, 323.79 6.33, 388.5 7.3" stroke="#1971c2" stroke-width="2" fill="none"></path></g></g><mask></mask><g transform="translate(918.96875 541.31640625) rotate(0 6.879997253417969 12.5)"><text x="0" y="0" font-family="Virgil, Segoe UI Emoji" font-size="20px" fill="#1971c2" text-anchor="start" style="white-space: pre;" direction="ltr" dominant-baseline="text-before-edge">0</text></g><g transform="translate(1279.79296875 535.62890625) rotate(0 57.81995391845703 12.5)"><text x="0" y="0" font-family="Virgil, Segoe UI Emoji" font-size="20px" fill="#1971c2" text-anchor="start" style="white-space: pre;" direction="ltr" dominant-baseline="text-before-edge">1 (max dist)</text></g><g transform="translate(1014.703125 345.4453125) rotate(0 130.82989501953125 12.5)"><text x="0" y="0" font-family="Virgil, Segoe UI Emoji" font-size="20px" fill="#1971c2" text-anchor="start" style="white-space: pre;" direction="ltr" dominant-baseline="text-before-edge">Coastal elevation function</text></g><g transform="translate(1074.8984375 569.05859375) rotate(0 40.78996276855469 12.5)"><text x="0" y="0" font-family="Virgil, Segoe UI Emoji" font-size="20px" fill="#1971c2" text-anchor="start" style="white-space: pre;" direction="ltr" dominant-baseline="text-before-edge">distance</text></g><g transform="translate(932.6796875 365.71875) rotate(0 59.349945068359375 25)"><text x="0" y="0" font-family="Virgil, Segoe UI Emoji" font-size="20px" fill="#1971c2" text-anchor="start" style="white-space: pre;" direction="ltr" dominant-baseline="text-before-edge">1 </text><text x="0" y="25" font-family="Virgil, Segoe UI Emoji" font-size="20px" fill="#1971c2" text-anchor="start" style="white-space: pre;" direction="ltr" dominant-baseline="text-before-edge">(max height)</text></g><g transform="translate(925.1953125 572.9609375) rotate(0 189.095703125 -34.033203125)" stroke="none"><path fill="#1971c2" d="M 0.24,-2.44 Q 0.24,-2.44 0.90,-2.43 1.55,-2.41 3.47,-3.21 5.39,-4.00 6.40,-4.41 7.40,-4.81 8.80,-5.29 10.20,-5.77 11.69,-6.28 13.18,-6.79 14.72,-7.27 16.26,-7.76 18.07,-8.20 19.89,-8.64 21.50,-9.12 23.11,-9.61 24.88,-10.11 26.66,-10.62 28.53,-11.14 30.40,-11.67 32.01,-12.23 33.62,-12.79 35.06,-13.37 36.51,-13.96 38.21,-14.54 39.91,-15.13 41.49,-15.67 43.07,-16.20 44.39,-16.76 45.70,-17.32 47.26,-17.85 48.83,-18.38 50.07,-18.88 51.32,-19.38 52.58,-19.88 53.84,-20.38 55.38,-20.91 56.93,-21.43 58.37,-21.93 59.80,-22.43 61.37,-22.91 62.93,-23.38 64.51,-23.84 66.09,-24.30 67.29,-24.68 68.49,-25.06 70.33,-25.47 72.17,-25.88 73.37,-26.25 74.58,-26.63 76.45,-27.00 78.32,-27.38 79.79,-27.76 81.26,-28.15 82.59,-28.54 83.93,-28.92 85.10,-29.26 86.27,-29.60 87.35,-29.90 88.44,-30.20 89.63,-30.42 90.83,-30.65 92.93,-31.08 95.03,-31.51 96.07,-31.72 97.12,-31.93 99.32,-32.40 101.52,-32.87 103.89,-33.34 106.27,-33.82 107.35,-34.06 108.44,-34.30 109.99,-34.66 111.54,-35.01 112.98,-35.43 114.42,-35.84 115.70,-36.24 116.99,-36.64 118.52,-37.06 120.05,-37.48 121.46,-37.92 122.87,-38.36 124.53,-38.74 126.20,-39.13 127.98,-39.51 129.77,-39.90 131.49,-40.21 133.22,-40.53 134.80,-40.80 136.38,-41.08 138.13,-41.41 139.88,-41.74 141.72,-42.01 143.57,-42.28 145.39,-42.53 147.20,-42.78 149.14,-43.04 151.07,-43.30 153.01,-43.55 154.96,-43.81 156.70,-44.07 158.43,-44.34 159.83,-44.58 161.22,-44.82 163.30,-45.06 165.38,-45.30 167.19,-45.58 169.01,-45.86 170.81,-46.17 172.61,-46.49 174.41,-46.71 176.20,-46.93 177.90,-47.17 179.60,-47.40 180.78,-47.64 181.95,-47.87 184.11,-48.04 186.28,-48.22 188.23,-48.45 190.17,-48.68 191.98,-48.93 193.80,-49.18 195.16,-49.42 196.52,-49.66 198.37,-49.96 200.21,-50.26 201.47,-50.54 202.74,-50.83 204.60,-51.09 206.46,-51.35 208.43,-51.61 210.41,-51.88 212.06,-52.23 213.72,-52.58 216.41,-53.21 219.09,-53.84 220.87,-54.17 222.66,-54.51 224.41,-54.79 226.17,-55.07 227.28,-55.33 228.39,-55.59 230.64,-55.89 232.88,-56.19 234.20,-56.44 235.52,-56.69 237.37,-56.93 239.22,-57.17 240.91,-57.42 242.60,-57.68 244.14,-57.89 245.67,-58.10 246.98,-58.34 248.30,-58.59 249.63,-58.79 250.95,-59.00 252.18,-59.23 253.40,-59.46 254.56,-59.71 255.72,-59.96 256.93,-60.16 258.14,-60.36 259.23,-60.59 260.33,-60.81 262.42,-61.12 264.52,-61.43 266.56,-61.65 268.60,-61.87 269.68,-61.99 270.77,-62.11 272.69,-62.38 274.61,-62.64 275.67,-62.77 276.72,-62.90 278.77,-63.15 280.83,-63.41 282.00,-63.52 283.17,-63.63 284.99,-63.84 286.81,-64.04 288.17,-64.14 289.53,-64.25 290.72,-64.38 291.90,-64.50 293.08,-64.57 294.26,-64.64 296.33,-64.83 298.40,-65.02 300.83,-65.13 303.26,-65.23 305.56,-65.34 307.86,-65.45 310.50,-65.50 313.14,-65.56 314.62,-65.58 316.09,-65.59 317.51,-65.65 318.93,-65.71 320.11,-65.82 321.28,-65.93 322.36,-66.06 323.44,-66.19 325.57,-66.54 327.71,-66.89 329.81,-67.13 331.92,-67.37 334.27,-67.53 336.63,-67.69 338.02,-67.72 339.41,-67.75 340.65,-67.82 341.89,-67.90 343.14,-68.00 344.39,-68.10 345.56,-68.21 346.74,-68.33 348.02,-68.38 349.31,-68.44 351.30,-68.70 353.29,-68.97 354.36,-69.13 355.43,-69.29 357.33,-69.57 359.22,-69.85 360.68,-70.04 362.13,-70.23 363.58,-70.42 365.02,-70.61 366.50,-70.84 367.98,-71.06 369.04,-71.22 370.09,-71.38 371.32,-71.48 372.55,-71.58 373.79,-71.60 375.04,-71.63 376.61,-71.64 378.18,-71.65 378.72,-71.56 379.26,-71.48 379.74,-71.22 380.22,-70.97 380.59,-70.57 380.97,-70.18 381.20,-69.68 381.43,-69.19 381.49,-68.65 381.54,-68.11 381.43,-67.58 381.31,-67.04 381.03,-66.58 380.75,-66.11 380.34,-65.76 379.92,-65.41 379.42,-65.21 378.91,-65.00 378.37,-64.97 377.82,-64.94 377.30,-65.09 376.78,-65.24 376.32,-65.54 375.87,-65.85 375.54,-66.28 375.22,-66.71 375.04,-67.23 374.87,-67.74 374.87,-68.29 374.87,-68.83 375.04,-69.35 375.21,-69.86 375.54,-70.30 375.87,-70.73 376.32,-71.03 376.77,-71.34 377.30,-71.49 377.82,-71.63 378.37,-71.60 378.91,-71.57 379.41,-71.37 379.92,-71.17 380.33,-70.82 380.75,-70.47 381.03,-70.00 381.31,-69.53 381.43,-69.00 381.54,-68.47 381.49,-67.93 381.43,-67.39 381.20,-66.89 380.97,-66.40 380.60,-66.01 380.22,-65.61 379.74,-65.36 379.26,-65.10 378.72,-65.01 378.19,-64.92 378.19,-64.92 378.19,-64.92 376.05,-64.94 373.91,-64.95 372.50,-64.95 371.10,-64.95 369.43,-64.76 367.76,-64.58 366.06,-64.50 364.36,-64.42 362.69,-64.26 361.03,-64.10 359.57,-63.98 358.10,-63.86 356.14,-63.64 354.18,-63.42 353.01,-63.25 351.84,-63.08 350.68,-63.01 349.52,-62.93 348.38,-62.89 347.24,-62.86 346.03,-62.75 344.82,-62.65 343.53,-62.54 342.25,-62.44 340.91,-62.35 339.57,-62.26 338.28,-62.20 336.99,-62.15 334.79,-61.99 332.59,-61.82 331.22,-61.64 329.85,-61.46 328.11,-61.33 326.37,-61.19 325.17,-61.02 323.97,-60.84 322.84,-60.76 321.72,-60.67 320.47,-60.58 319.22,-60.49 317.72,-60.39 316.22,-60.28 314.81,-60.23 313.40,-60.17 310.79,-60.00 308.19,-59.82 305.89,-59.70 303.60,-59.57 301.23,-59.41 298.85,-59.26 297.59,-59.14 296.32,-59.01 294.43,-58.90 292.53,-58.78 291.34,-58.64 290.15,-58.51 288.67,-58.30 287.19,-58.10 285.47,-57.98 283.75,-57.85 282.61,-57.74 281.47,-57.62 279.41,-57.41 277.35,-57.20 275.40,-57.01 273.44,-56.82 272.37,-56.73 271.30,-56.63 270.16,-56.54 269.03,-56.44 267.11,-56.33 265.19,-56.21 263.20,-56.01 261.20,-55.82 260.00,-55.64 258.80,-55.46 257.69,-55.35 256.58,-55.24 255.35,-55.05 254.12,-54.87 252.80,-54.70 251.48,-54.54 250.21,-54.44 248.94,-54.33 247.54,-54.17 246.14,-54.00 244.66,-53.87 243.18,-53.74 241.49,-53.49 239.79,-53.25 237.93,-52.94 236.07,-52.63 234.83,-52.53 233.58,-52.42 231.33,-51.90 229.09,-51.38 227.95,-51.26 226.81,-51.15 225.12,-50.87 223.43,-50.59 221.67,-50.23 219.91,-49.86 217.18,-49.37 214.45,-48.88 212.73,-48.55 211.00,-48.23 209.03,-47.85 207.06,-47.48 205.23,-47.16 203.40,-46.85 202.13,-46.71 200.87,-46.58 198.93,-46.20 197.00,-45.82 195.64,-45.72 194.28,-45.63 192.46,-45.39 190.65,-45.15 188.69,-44.85 186.74,-44.56 184.61,-44.20 182.49,-43.84 181.28,-43.75 180.08,-43.67 178.35,-43.47 176.63,-43.27 174.93,-43.09 173.23,-42.91 171.40,-42.59 169.56,-42.27 167.76,-42.00 165.95,-41.72 163.84,-41.29 161.72,-40.86 160.35,-40.75 158.97,-40.64 157.24,-40.40 155.50,-40.15 153.59,-39.84 151.69,-39.52 149.75,-39.15 147.82,-38.78 146.03,-38.48 144.25,-38.18 142.51,-37.86 140.77,-37.55 138.96,-37.11 137.15,-36.68 135.61,-36.42 134.07,-36.15 132.48,-35.82 130.88,-35.49 129.12,-34.98 127.36,-34.46 125.86,-34.06 124.37,-33.66 122.92,-33.18 121.47,-32.71 119.97,-32.23 118.47,-31.76 117.19,-31.37 115.91,-30.99 114.41,-30.50 112.90,-30.01 110.17,-29.29 107.43,-28.58 104.99,-28.02 102.56,-27.47 101.41,-27.26 100.26,-27.05 99.17,-26.84 98.08,-26.64 95.96,-26.35 93.83,-26.05 91.69,-25.75 89.55,-25.45 88.47,-25.24 87.39,-25.03 86.24,-24.80 85.09,-24.56 83.71,-24.23 82.34,-23.90 80.82,-23.53 79.31,-23.16 77.54,-22.68 75.78,-22.21 74.53,-21.91 73.28,-21.62 71.51,-21.09 69.74,-20.56 68.56,-20.28 67.37,-19.99 65.82,-19.52 64.27,-19.04 62.78,-18.57 61.28,-18.10 59.85,-17.62 58.42,-17.14 56.92,-16.61 55.42,-16.07 54.14,-15.64 52.86,-15.20 51.52,-14.74 50.18,-14.29 48.73,-13.82 47.28,-13.35 45.83,-12.81 44.38,-12.27 42.84,-11.76 41.30,-11.26 39.66,-10.66 38.03,-10.06 36.51,-9.49 34.99,-8.91 33.33,-8.31 31.66,-7.71 29.84,-7.06 28.02,-6.40 26.30,-5.79 24.57,-5.17 22.90,-4.57 21.23,-3.97 19.58,-3.41 17.93,-2.86 16.50,-2.33 15.07,-1.81 13.60,-1.19 12.12,-0.57 10.80,-0.04 9.48,0.47 8.41,0.88 7.34,1.29 5.50,1.94 3.66,2.58 2.35,2.63 1.04,2.68 0.40,2.56 -0.24,2.44 -0.53,2.38 -0.82,2.31 -1.08,2.18 -1.35,2.05 -1.58,1.86 -1.80,1.67 -1.98,1.43 -2.15,1.18 -2.26,0.91 -2.37,0.63 -2.41,0.34 -2.46,0.05 -2.43,-0.24 -2.40,-0.53 -2.30,-0.81 -2.20,-1.09 -2.04,-1.34 -1.87,-1.59 -1.65,-1.79 -1.44,-1.99 -1.18,-2.13 -0.92,-2.28 -0.63,-2.35 -0.34,-2.43 -0.05,-2.44 0.24,-2.44 0.24,-2.44 L 0.24,-2.44 Z"></path></g><g stroke-linecap="round"><g transform="translate(722.0682595626265 629.166015625) rotate(0 -0.546875 118.705078125)"><path d="M-0.31 -0.81 C-0.31 38.4, 0.11 196.82, 0.07 236.38 M1.72 1.38 C1.67 41.22, 0.19 198.04, -0.27 237.38" stroke="#f08c00" stroke-width="2" fill="none"></path></g></g><mask></mask><g stroke-linecap="round"><g transform="translate(669.4432595626265 838.697265625) rotate(0 193.990234375 2.78125)"><path d="M1.16 -1.03 C65.97 -0.11, 323.88 3.74, 388.53 4.69 M0.32 1.04 C65.04 2.16, 323.1 5.03, 387.87 5.76" stroke="#f08c00" stroke-width="2" fill="none"></path></g></g><mask></mask><g transform="translate(687.3026345626265 821.814453125) rotate(0 6.879997253417969 12.5)"><text x="0" y="0" font-family="Virgil, Segoe UI Emoji" font-size="20px" fill="#f08c00" text-anchor="start" style="white-space: pre;" direction="ltr" dominant-baseline="text-before-edge">0</text></g><g transform="translate(1048.1268533126263 816.126953125) rotate(0 57.81995391845703 12.5)"><text x="0" y="0" font-family="Virgil, Segoe UI Emoji" font-size="20px" fill="#f08c00" text-anchor="start" style="white-space: pre;" direction="ltr" dominant-baseline="text-before-edge">1 (max dist)</text></g><g transform="translate(781.4081033126265 625.943359375) rotate(0 163.01986694335938 12.5)"><text x="0" y="0" font-family="Virgil, Segoe UI Emoji" font-size="20px" fill="#f08c00" text-anchor="start" style="white-space: pre;" direction="ltr" dominant-baseline="text-before-edge">Mountain chain elevation function</text></g><g transform="translate(843.2323220626265 849.556640625) rotate(0 40.78996276855469 12.5)"><text x="0" y="0" font-family="Virgil, Segoe UI Emoji" font-size="20px" fill="#f08c00" text-anchor="start" style="white-space: pre;" direction="ltr" dominant-baseline="text-before-edge">distance</text></g><g transform="translate(701.0135720626265 646.216796875) rotate(0 59.349945068359375 25)"><text x="0" y="0" font-family="Virgil, Segoe UI Emoji" font-size="20px" fill="#f08c00" text-anchor="start" style="white-space: pre;" direction="ltr" dominant-baseline="text-before-edge">1 </text><text x="0" y="25" font-family="Virgil, Segoe UI Emoji" font-size="20px" fill="#f08c00" text-anchor="start" style="white-space: pre;" direction="ltr" dominant-baseline="text-before-edge">(max height)</text></g><g transform="translate(724.84765625 706.5546875) rotate(0 171.42578125 71.033203125)" stroke="none"><path fill="#f08c00" d="M 0.47,-2.61 Q 0.47,-2.61 1.19,-2.52 1.92,-2.43 3.25,-1.97 4.58,-1.51 5.57,-0.89 6.56,-0.27 7.59,0.45 8.62,1.17 9.73,2.06 10.85,2.95 11.89,3.83 12.94,4.72 14.10,5.86 15.27,7.01 16.16,7.90 17.06,8.80 18.07,10.14 19.07,11.48 19.93,12.96 20.79,14.45 21.60,16.13 22.41,17.82 23.14,19.58 23.88,21.34 24.24,22.40 24.60,23.46 25.20,25.33 25.80,27.20 26.29,28.87 26.77,30.54 26.97,31.64 27.17,32.74 27.53,34.35 27.89,35.96 28.32,37.55 28.75,39.14 28.94,40.46 29.12,41.78 29.51,43.92 29.90,46.05 30.20,47.73 30.51,49.41 30.73,50.51 30.96,51.61 31.19,52.68 31.42,53.75 31.71,55.47 31.99,57.20 32.24,58.71 32.48,60.23 32.81,62.16 33.13,64.09 33.29,65.19 33.44,66.28 33.83,68.20 34.21,70.12 34.66,71.96 35.10,73.80 35.77,75.60 36.43,77.39 37.18,78.66 37.94,79.93 38.69,80.86 39.44,81.79 40.44,82.43 41.44,83.07 42.47,83.35 43.51,83.62 44.68,83.81 45.85,84.00 46.97,82.90 48.09,81.79 49.01,80.31 49.94,78.82 50.61,77.80 51.29,76.78 51.88,75.83 52.47,74.88 53.17,73.83 53.86,72.77 54.88,71.15 55.89,69.53 56.48,68.26 57.07,67.00 57.40,65.75 57.74,64.50 58.10,63.33 58.46,62.16 59.41,60.74 60.36,59.31 61.93,58.31 63.51,57.31 65.45,57.42 67.40,57.54 68.72,58.44 70.05,59.34 71.17,60.47 72.29,61.60 73.45,63.08 74.61,64.56 75.26,65.56 75.92,66.56 76.55,67.57 77.19,68.57 78.30,70.28 79.42,72.00 80.58,73.61 81.74,75.21 82.88,76.65 84.02,78.08 85.28,79.55 86.54,81.02 87.51,82.06 88.49,83.10 89.72,84.51 90.94,85.92 92.28,87.44 93.62,88.97 94.80,90.04 95.99,91.12 97.13,91.89 98.27,92.65 99.24,92.12 100.22,91.59 101.28,90.52 102.34,89.45 103.05,88.31 103.76,87.17 104.42,86.06 105.08,84.94 106.22,83.44 107.35,81.94 108.67,80.52 109.99,79.09 111.29,78.21 112.58,77.34 113.81,76.86 115.03,76.38 116.29,76.22 117.55,76.07 119.51,76.54 121.46,77.02 122.93,77.63 124.39,78.25 125.41,78.85 126.43,79.46 128.02,80.48 129.61,81.51 130.69,82.36 131.77,83.21 132.67,83.85 133.58,84.49 134.59,85.31 135.60,86.13 137.18,87.66 138.76,89.19 140.04,90.96 141.33,92.74 142.37,94.58 143.41,96.42 144.25,97.67 145.09,98.93 146.15,100.02 147.21,101.11 147.77,99.88 148.34,98.65 149.90,97.47 151.46,96.28 153.12,95.53 154.78,94.77 156.34,94.27 157.90,93.77 159.43,93.53 160.96,93.28 162.37,93.23 163.79,93.18 165.43,93.55 167.08,93.92 168.51,94.57 169.94,95.21 171.54,96.23 173.14,97.24 174.76,98.68 176.39,100.12 177.30,100.93 178.22,101.73 179.18,102.55 180.15,103.37 181.08,104.08 182.02,104.79 182.95,105.39 183.88,105.99 185.71,106.99 187.54,107.98 189.22,108.63 190.90,109.27 192.55,109.67 194.20,110.06 195.92,110.25 197.64,110.44 199.44,110.48 201.24,110.53 202.48,110.55 203.72,110.58 204.81,110.48 205.90,110.38 207.98,110.08 210.06,109.79 212.26,109.57 214.46,109.35 216.49,109.30 218.53,109.25 219.66,109.31 220.79,109.36 222.86,109.62 224.92,109.88 225.99,110.18 227.06,110.47 229.17,111.26 231.27,112.05 233.51,113.07 235.74,114.09 236.98,114.72 238.21,115.35 239.27,115.85 240.33,116.35 242.19,117.11 244.05,117.88 245.09,118.26 246.14,118.64 247.35,119.09 248.55,119.54 249.83,120.02 251.10,120.50 252.46,121.07 253.82,121.63 255.17,122.12 256.52,122.62 257.79,123.01 259.07,123.41 260.10,123.71 261.13,124.00 262.73,124.60 264.33,125.19 265.74,125.62 267.16,126.04 268.50,126.41 269.83,126.78 271.17,127.13 272.51,127.48 273.97,127.86 275.43,128.24 278.12,128.82 280.81,129.40 283.21,129.87 285.61,130.33 288.14,130.79 290.67,131.24 293.23,131.76 295.80,132.29 298.04,132.65 300.29,133.00 301.53,133.23 302.78,133.46 304.73,133.70 306.68,133.94 308.38,134.12 310.09,134.30 311.15,134.40 312.22,134.51 313.66,134.67 315.10,134.83 316.30,135.14 317.50,135.44 318.60,135.70 319.70,135.96 320.78,136.16 321.87,136.36 323.10,136.35 324.33,136.35 325.79,136.52 327.24,136.70 328.37,136.92 329.50,137.14 331.00,137.44 332.49,137.74 334.06,138.01 335.63,138.27 336.97,138.37 338.31,138.47 340.30,138.41 342.30,138.35 342.86,138.36 343.43,138.36 343.97,138.55 344.51,138.73 344.96,139.08 345.41,139.42 345.73,139.90 346.05,140.37 346.20,140.92 346.35,141.47 346.31,142.04 346.28,142.61 346.07,143.13 345.85,143.66 345.48,144.09 345.11,144.53 344.62,144.82 344.13,145.11 343.58,145.23 343.02,145.35 342.45,145.28 341.89,145.22 341.37,144.98 340.86,144.73 340.44,144.34 340.03,143.95 339.77,143.44 339.51,142.94 339.42,142.37 339.33,141.81 339.42,141.25 339.52,140.69 339.79,140.19 340.06,139.69 340.47,139.30 340.89,138.91 341.41,138.67 341.92,138.43 342.49,138.38 343.06,138.32 343.61,138.44 344.17,138.57 344.65,138.86 345.14,139.16 345.51,139.60 345.87,140.03 346.08,140.56 346.29,141.09 346.32,141.66 346.34,142.23 346.19,142.78 346.03,143.33 345.71,143.80 345.39,144.27 344.93,144.61 344.48,144.95 343.94,145.13 343.40,145.31 343.40,145.31 343.40,145.31 341.13,145.41 338.85,145.52 337.71,145.41 336.56,145.30 334.93,145.21 333.30,145.12 332.10,144.85 330.90,144.57 329.45,144.26 327.99,143.94 326.61,143.65 325.22,143.36 324.00,143.26 322.78,143.17 321.57,143.05 320.35,142.92 319.09,142.60 317.82,142.28 316.67,141.92 315.52,141.56 314.47,141.16 313.42,140.76 311.98,140.50 310.55,140.24 309.09,139.95 307.64,139.67 305.79,139.35 303.95,139.03 302.86,138.82 301.78,138.62 300.55,138.37 299.33,138.13 297.01,137.68 294.70,137.24 292.24,136.73 289.78,136.21 287.21,135.74 284.64,135.27 282.21,134.73 279.78,134.19 278.14,133.89 276.51,133.59 275.38,133.32 274.24,133.06 272.74,132.71 271.23,132.36 269.86,132.00 268.48,131.64 267.13,131.26 265.78,130.89 264.25,130.48 262.73,130.06 260.13,129.27 257.54,128.47 256.17,128.06 254.80,127.66 253.31,127.19 251.83,126.71 250.52,126.23 249.21,125.75 247.92,125.30 246.63,124.86 245.42,124.44 244.21,124.01 242.97,123.57 241.73,123.13 239.83,122.31 237.93,121.49 236.81,120.97 235.69,120.45 234.57,119.91 233.44,119.37 231.25,118.47 229.05,117.56 227.21,116.93 225.37,116.30 223.80,115.90 222.24,115.49 220.41,115.33 218.59,115.17 216.67,115.20 214.74,115.22 212.82,115.41 210.90,115.60 208.71,115.92 206.51,116.24 205.11,116.40 203.70,116.56 202.44,116.57 201.18,116.59 199.20,116.55 197.23,116.51 195.07,116.24 192.91,115.97 190.88,115.43 188.85,114.90 186.92,114.13 184.98,113.35 182.82,112.24 180.66,111.13 179.55,110.45 178.44,109.78 177.34,109.02 176.25,108.27 175.20,107.48 174.14,106.70 173.08,105.88 172.01,105.06 171.09,104.31 170.16,103.56 169.07,102.74 167.97,101.93 166.53,101.22 165.10,100.50 163.91,100.26 162.73,100.02 161.10,100.18 159.47,100.35 158.36,100.69 157.26,101.02 156.21,101.45 155.15,101.88 154.02,102.76 152.89,103.64 151.96,104.51 151.04,105.37 149.24,106.45 147.45,107.52 145.44,106.95 143.44,106.38 142.59,105.55 141.75,104.72 140.85,103.63 139.95,102.53 138.95,100.95 137.95,99.36 137.00,97.70 136.05,96.04 135.17,94.78 134.28,93.51 133.00,92.29 131.72,91.07 130.86,90.43 130.01,89.79 128.98,89.12 127.95,88.46 126.35,87.39 124.74,86.32 123.20,85.43 121.66,84.54 119.97,83.86 118.27,83.17 117.07,83.22 115.87,83.28 114.82,83.97 113.77,84.67 112.65,86.18 111.53,87.70 110.81,88.87 110.09,90.05 109.46,91.05 108.83,92.05 108.06,93.10 107.29,94.15 106.37,95.09 105.45,96.02 104.41,96.86 103.37,97.70 101.96,98.42 100.55,99.14 98.99,99.10 97.43,99.06 96.16,98.53 94.89,97.99 93.42,96.93 91.96,95.88 90.54,94.56 89.13,93.24 87.68,91.67 86.23,90.10 85.08,88.79 83.93,87.49 82.78,86.20 81.62,84.92 80.43,83.52 79.23,82.12 78.01,80.60 76.78,79.08 75.42,77.30 74.05,75.52 72.90,73.88 71.75,72.23 70.48,70.47 69.21,68.71 68.10,67.42 66.99,66.13 65.88,65.12 64.76,64.11 64.37,65.26 63.97,66.40 63.49,67.95 63.01,69.50 62.20,71.15 61.38,72.80 60.36,74.49 59.33,76.17 58.75,77.17 58.16,78.17 57.58,79.25 57.00,80.33 56.45,81.28 55.90,82.23 54.87,84.05 53.83,85.88 52.77,87.29 51.72,88.69 50.41,89.59 49.10,90.49 47.96,90.72 46.82,90.94 45.45,90.79 44.09,90.64 42.77,90.35 41.46,90.06 40.14,89.57 38.83,89.08 37.61,88.27 36.38,87.47 35.49,86.67 34.60,85.86 33.64,84.54 32.68,83.23 31.73,81.50 30.79,79.77 30.34,78.70 29.89,77.62 29.53,76.54 29.17,75.45 28.65,73.40 28.13,71.35 27.91,70.30 27.69,69.26 27.34,67.27 26.99,65.29 26.78,64.21 26.56,63.14 26.35,61.58 26.13,60.01 25.96,58.94 25.79,57.87 25.60,56.48 25.42,55.08 25.17,54.01 24.93,52.94 24.65,51.77 24.37,50.60 24.10,48.92 23.82,47.24 23.59,46.13 23.36,45.01 22.95,42.88 22.55,40.75 22.10,39.07 21.65,37.39 21.23,35.63 20.82,33.86 20.46,32.28 20.10,30.70 19.61,29.05 19.13,27.40 18.54,25.72 17.95,24.05 17.16,22.26 16.36,20.47 15.61,18.95 14.86,17.44 14.25,16.34 13.64,15.25 13.01,14.31 12.38,13.37 11.43,12.36 10.48,11.34 9.62,10.43 8.77,9.53 7.78,8.62 6.79,7.72 5.89,6.91 4.99,6.11 4.09,5.37 3.20,4.64 2.07,3.79 0.94,2.95 0.23,2.78 -0.47,2.61 -0.78,2.52 -1.08,2.42 -1.36,2.25 -1.63,2.09 -1.86,1.86 -2.08,1.64 -2.25,1.36 -2.42,1.09 -2.51,0.78 -2.61,0.48 -2.63,0.16 -2.65,-0.15 -2.59,-0.47 -2.53,-0.78 -2.40,-1.07 -2.27,-1.37 -2.07,-1.62 -1.88,-1.87 -1.62,-2.07 -1.37,-2.27 -1.08,-2.40 -0.79,-2.53 -0.47,-2.59 -0.16,-2.65 0.15,-2.63 0.47,-2.61 0.47,-2.61 L 0.47,-2.61 Z"></path></g><g transform="translate(252.42578125 669.0390625) rotate(0 173.2919158935547 17.5)"><text x="0" y="0" font-family="Virgil, Segoe UI Emoji" font-size="28px" fill="#1e1e1e" text-anchor="start" style="white-space: pre;" direction="ltr" dominant-baseline="text-before-edge">Terrain Chunk mesh plane</text></g></svg>